# xmcd CD database file
#
# Track frame offsets:
#	150
#	14751
#	28612
#	41088
#	53550
#	65036
#	76900
#	87783
#	100531
#	114558
#	126260
#	139171
#	151449
#	163805
#	177041
#	189052
#
# Disc length: 2676 seconds
#
# Revision: 0
# Processed by: cddbd v1.5.1PL0 Copyright (c) Steve Scherf et al.
# Submitted via: CDex 1.51
#
DISCID=cb0a7210
DTITLE=Bill Boyd's Cowboy Ramblers - Bill Boyd's Cowboy Ramblers AXM2-5503 Disc 02
DYEAR=1975
DGENRE=Country
TTITLE0=You Shall Be Free Monah
TTITLE1=Guess Who's In Town
TTITLE2=Beaumont Rag
TTITLE3=What's The Use
TTITLE4=New Steel Guitar Rag
TTITLE5=Boyd's Tin Roof Blues
TTITLE6=I've Got Those Oklahoma Blues
TTITLE7=New Spanish Two Step
TTITLE8=Spanish Fandango
TTITLE9=Singing And Swinging For Me
TTITLE10=La Golandrina
TTITLE11=I've Got The Blues For Mammy
TTITLE12=Mill Blues
TTITLE13=New Fort Worth Rag
TTITLE14=Lone Star Rag
TTITLE15=Domino Rag
EXTD=YEAR: 1975
EXTT0=
EXTT1=
EXTT2=
EXTT3=
EXTT4=
EXTT5=
EXTT6=
EXTT7=
EXTT8=
EXTT9=
EXTT10=
EXTT11=
EXTT12=
EXTT13=
EXTT14=
EXTT15=
PLAYORDER=
